HIERARCHY
ROOT hip
{
  OFFSET 0 0 0
  CHANNELS 6 Xposition Yposition Zposition Zrotation Yrotation Xrotation
  JOINT abdomen
  {
    OFFSET 0 20.6881 -0.73152
    CHANNELS 3 Zrotation Xrotation Yrotation
    JOINT chest
    {
      OFFSET 0 11.7043 -0.48768
      CHANNELS 3 Zrotation Xrotation Yrotation
      JOINT neck
      {
        OFFSET 0 22.1894 -2.19456
        CHANNELS 3 Zrotation Xrotation Yrotation
        JOINT head
        {
          OFFSET -0.24384 7.07133 1.2192
          CHANNELS 3 Zrotation Xrotation Yrotation
          JOINT leftEye
          {
            OFFSET 4.14528 8.04674 8.04672
            CHANNELS 3 Zrotation Xrotation Yrotation
            End Site
            {
              OFFSET 1 0 0
            }
          }
          JOINT rightEye
          {
            OFFSET -3.6576 8.04674 8.04672
            CHANNELS 3 Zrotation Xrotation Yrotation
            End Site
            {
              OFFSET 1 0 0
            }
          }
        }
      }
      JOINT rCollar
      {
        OFFSET -2.68224 19.2634 -4.8768
        CHANNELS 3 Zrotation Xrotation Yrotation
        JOINT rShldr
        {
          OFFSET -8.77824 -1.95073 1.46304
          CHANNELS 3 Zrotation Xrotation Yrotation
          JOINT rForeArm
          {
            OFFSET -28.1742 -1.7115 0.48768
            CHANNELS 3 Zrotation Xrotation Yrotation
            JOINT rHand
            {
              OFFSET -22.5879 0.773209 7.07136
              CHANNELS 3 Zrotation Xrotation Yrotation
              JOINT rThumb1
              {
                OFFSET -1.2192 -0.487915 3.41376
                CHANNELS 3 Zrotation Xrotation Yrotation
                JOINT rThumb2
                {
                  OFFSET -3.37035 -0.52449 3.41376
                  CHANNELS 3 Zrotation Xrotation Yrotation
                  End Site
                  {
                    OFFSET -1.78271 -1.18214 1.43049
                  }
                }
              }
              JOINT rIndex1
              {
                OFFSET -7.75947 0.938293 5.60832
                CHANNELS 3 Zrotation Xrotation Yrotation
                JOINT rIndex2
                {
                  OFFSET -2.54057 -0.884171 1.56538
                  CHANNELS 3 Zrotation Xrotation Yrotation
                  End Site
                  {
                    OFFSET -1.62519 -0.234802 1.16502
                  }
                }
              }
              JOINT rMid1
              {
                OFFSET -8.24714 1.18213 3.41376
                CHANNELS 3 Zrotation Xrotation Yrotation
                JOINT rMid2
                {
                  OFFSET -3.10165 -0.590103 1.0647
                  CHANNELS 3 Zrotation Xrotation Yrotation
                  End Site
                  {
                    OFFSET -2.48547 -0.328903 0.83742
                  }
                }
              }
              JOINT rRing1
              {
                OFFSET -8.82822 0.546677 1.51678
                CHANNELS 3 Zrotation Xrotation Yrotation
                JOINT rRing2
                {
                  OFFSET -2.60934 -0.819778 -0.0198488
                  CHANNELS 3 Zrotation Xrotation Yrotation
                  End Site
                  {
                    OFFSET -2.33842 -0.294052 0.168128
                  }
                }
              }
              JOINT rPinky1
              {
                OFFSET -8.27202 -0.0477905 -0.4584
                CHANNELS 3 Zrotation Xrotation Yrotation
                JOINT rPinky2
                {
                  OFFSET -1.82734 -0.647385 -0.700984
                  CHANNELS 3 Zrotation Xrotation Yrotation
                  End Site
                  {
                    OFFSET -1.69225 -0.51767 -0.607171
                  }
                }
              }
            }
          }
        }
      }
      JOINT lCollar
      {
        OFFSET 2.68224 19.2634 -4.8768
        CHANNELS 3 Zrotation Xrotation Yrotation
        JOINT lShldr
        {
          OFFSET 8.77824 -1.95073 1.46304
          CHANNELS 3 Zrotation Xrotation Yrotation
          JOINT lForeArm
          {
            OFFSET 28.1742 -1.7115 0.48768
            CHANNELS 3 Zrotation Xrotation Yrotation
            JOINT lHand
            {
              OFFSET 22.5879 0.773209 7.07136
              CHANNELS 3 Zrotation Xrotation Yrotation
              JOINT lThumb1
              {
                OFFSET 1.2192 -0.487915 3.41376
                CHANNELS 3 Zrotation Xrotation Yrotation
                JOINT lThumb2
                {
                  OFFSET 3.37035 -0.52449 3.41376
                  CHANNELS 3 Zrotation Xrotation Yrotation
                  End Site
                  {
                    OFFSET 1.78271 -1.18214 1.43049
                  }
                }
              }
              JOINT lIndex1
              {
                OFFSET 7.75947 0.938293 5.60832
                CHANNELS 3 Zrotation Xrotation Yrotation
                JOINT lIndex2
                {
                  OFFSET 2.54057 -0.884171 1.56538
                  CHANNELS 3 Zrotation Xrotation Yrotation
                  End Site
                  {
                    OFFSET 1.62519 -0.234802 1.16502
                  }
                }
              }
              JOINT lMid1
              {
                OFFSET 8.24714 1.18213 3.41376
                CHANNELS 3 Zrotation Xrotation Yrotation
                JOINT lMid2
                {
                  OFFSET 3.10165 -0.590103 1.0647
                  CHANNELS 3 Zrotation Xrotation Yrotation
                  End Site
                  {
                    OFFSET 2.48547 -0.328903 0.83742
                  }
                }
              }
              JOINT lRing1
              {
                OFFSET 8.82822 0.546677 1.51678
                CHANNELS 3 Zrotation Xrotation Yrotation
                JOINT lRing2
                {
                  OFFSET 2.60934 -0.819778 -0.0198488
                  CHANNELS 3 Zrotation Xrotation Yrotation
                  End Site
                  {
                    OFFSET 2.33842 -0.294052 0.168128
                  }
                }
              }
              JOINT lPinky1
              {
                OFFSET 8.27202 -0.0477905 -0.4584
                CHANNELS 3 Zrotation Xrotation Yrotation
                JOINT lPinky2
                {
                  OFFSET 1.82734 -0.647385 -0.700984
                  CHANNELS 3 Zrotation Xrotation Yrotation
                  End Site
                  {
                    OFFSET 1.69225 -0.51767 -0.607171
                  }
                }
              }
            }
          }
        }
      }
    }
  }
  JOINT rButtock
  {
    OFFSET -8.77824 4.35084 1.2192
    CHANNELS 3 Zrotation Xrotation Yrotation
    JOINT rThigh
    {
      OFFSET 0 -1.70687 -2.19456
      CHANNELS 3 Zrotation Xrotation Yrotation
      JOINT rShin
      {
        OFFSET 0 -36.8199 0.73152
        CHANNELS 3 Zrotation Xrotation Yrotation
        JOINT rFoot
        {
          OFFSET 0.73152 -45.1104 -5.12064
          CHANNELS 3 Zrotation Xrotation Yrotation
          End Site
          {
            OFFSET -1.1221 -3.69964 12.103
          }
        }
      }
    }
  }
  JOINT lButtock
  {
    OFFSET 8.77824 4.35084 1.2192
    CHANNELS 3 Zrotation Xrotation Yrotation
    JOINT lThigh
    {
      OFFSET 0 -1.70687 -2.19456
      CHANNELS 3 Zrotation Xrotation Yrotation
      JOINT lShin
      {
        OFFSET 0 -36.8199 0.73152
        CHANNELS 3 Zrotation Xrotation Yrotation
        JOINT lFoot
        {
          OFFSET -0.73152 -45.1104 -5.12064
          CHANNELS 3 Zrotation Xrotation Yrotation
          End Site
          {
            OFFSET 1.1221 -3.69964 12.103
          }
        }
      }
    }
  }
}
MOTION
Frames:	7
Frame Time:	0.00833333
-8.28556 65.8657 -162.045 -21.516998 -43.6452 16.140001 7.602299 16.3078 14.218301 -1.1627901 -12.493501 4.09309 0.09933039 11.179502 7.217771 5.0964494 -21.4121 15.218499 0.0 0.0 0.0 0.0 0.0 0.0 -2.64813e-13 -2.37746e-13 -3.4017e-13 54.145897 79.9916 12.793307 -26.9547 -44.135494 91.71371 -31.534899 -77.371 -38.84771 -8.97029e-10 2.0439999e-09 3.36733e-09 -1.73297e-09 4.27129e-09 5.6553002e-09 -8.9702096e-10 2.04399e-09 3.36733e-09 7.730911 5.47488 0.41731405 -8.97029e-10 2.04399e-09 3.36733e-09 2.90554 0.965183 0.102902 -8.9702495e-10 2.04399e-09 3.36734e-09 10.2786 0.73180103 0.025912303 -8.97037e-10 2.04399e-09 3.36734e-09 2.2216702 -0.733487 -0.20892 -2.64767e-13 -2.37746e-13 -3.40468e-13 -58.762505 14.505299 -41.2221 28.4299 -35.2166 -75.704 0.61972904 21.784 -3.2198102 -1.2296799e-09 7.5266196e-11 1.0058501e-09 -2.11242e-09 8.99365e-11 1.7701101e-09 -1.22969e-09 7.52734e-11 1.0058699e-09 -7.730911 5.47488 -0.41731405 -1.2296799e-09 7.5272004e-11 1.0058501e-09 -2.90554 0.965183 -0.102902 -1.22969e-09 7.52692e-11 1.0058501e-09 -10.2786 0.73180103 -0.025912303 -1.2296799e-09 7.52718e-11 1.0058501e-09 -2.2216702 -0.733487 0.20892 -2.03217e-16 8e-44 -3.88251e-19 -16.422403 -17.586601 -32.586002 -1.2729303 65.6756 2.6341896 -6.14463 -13.1708 -15.042398 2.03217e-16 8e-44 3.88251e-19 78.00471 -50.521503 69.1342 5.6518435 80.3958 -5.6217523 -0.14862314 10.433 17.463
-8.62627 65.9462 -163.15001 -21.796 -44.3581 16.068 7.5269694 16.4356 14.4776 -1.2924 -12.752399 4.15614 0.12412094 11.0491 7.2843595 4.9032707 -21.2443 15.303801 0.0 0.0 0.0 0.0 0.0 0.0 -1.64147e-13 -1.2408699e-13 -1.16041e-14 52.9104 79.2638 14.079506 -26.994999 -44.0291 91.501396 -42.366806 -79.608604 -49.90049 -1.8079199e-09 7.8290405e-09 2.28523e-09 -3.2297498e-09 1.41130005e-08 3.76626e-09 -1.8079099e-09 7.8290405e-09 2.28523e-09 7.730911 5.47488 0.41731405 -1.8079199e-09 7.8290405e-09 2.28522e-09 2.90554 0.965183 0.102902 -1.8079099e-09 7.8290405e-09 2.28523e-09 10.2786 0.73180103 0.025912303 -1.80793e-09 7.8290405e-09 2.28524e-09 2.2216702 -0.733487 -0.20892 -1.64107e-13 -1.24095e-13 -1.1880499e-14 -59.794 13.6001005 -40.956604 28.424904 -35.0434 -75.425606 0.52938193 20.2888 -2.9769397 -8.7148105e-10 8.81412e-10 -1.37173e-10 -1.50516e-09 1.50892e-09 -2.1775501e-10 -8.7149e-10 8.81418e-10 -1.3715601e-10 -7.730911 5.47488 -0.41731405 -8.71482e-10 8.8140195e-10 -1.37167e-10 -2.90554 0.965183 -0.102902 -8.71491e-10 8.814e-10 -1.37173e-10 -10.2786 0.73180103 -0.025912303 -8.71482e-10 8.81418e-10 -1.3717799e-10 -2.2216702 -0.733487 0.20892 -2.03217e-16 8e-44 -3.88251e-19 -15.8178 -18.3143 -32.1958 -1.3524001 66.4854 2.7006595 -6.44029 -13.831901 -15.348302 2.03217e-16 8e-44 3.88251e-19 76.98711 -50.1712 68.04859 5.618316 80.35051 -5.592313 -0.061341945 10.174601 17.8405
-8.86546 66.016 -164.141 -21.675 -44.970596 15.787 7.3358097 16.599499 14.708499 -1.3935101 -12.996599 4.2087 0.14912602 10.9605 7.36171 4.776 -21.2805 15.4371 0.0 0.0 0.0 0.0 0.0 0.0 -6.95901e-14 -5.40621e-14 3.05433e-13 51.686195 78.5926 15.209189 -27.046001 -43.891098 91.2284 -61.715702 -81.4673 -69.5075 -2.4250901e-09 1.23297e-08 8.5602103e-10 -4.20315e-09 2.16395e-08 1.3058e-09 -2.42508e-09 1.23297e-08 8.5602103e-10 7.730911 5.47488 0.41731405 -2.4250901e-09 1.23297e-08 8.5600504e-10 2.90554 0.965183 0.102902 -2.42508e-09 1.23297e-08 8.56013e-10 10.2786 0.73180103 0.025912303 -2.4250901e-09 1.23297e-08 8.5602403e-10 2.2216702 -0.733487 -0.20892 -6.95636e-14 -5.4076e-14 3.05184e-13 -61.0618 12.802903 -40.756702 28.426796 -35.0312 -75.393 0.43950596 18.509499 -2.69677 -3.11376e-10 1.42223e-09 -1.28425e-09 -5.49703e-10 2.47359e-09 -2.2167599e-09 -3.11384e-10 1.42224e-09 -1.28423e-09 -7.730911 5.47488 -0.41731405 -3.11378e-10 1.42221e-09 -1.28424e-09 -2.90554 0.965183 -0.102902 -3.11391e-10 1.42221e-09 -1.28425e-09 -10.2786 0.73180103 -0.025912303 -3.1138e-10 1.42224e-09 -1.28425e-09 -2.2216702 -0.733487 0.20892 -2.03217e-16 8e-44 -3.88251e-19 -15.256001 -19.0279 -31.718105 -1.4273304 67.1845 2.75741 -6.70399 -14.3288 -15.6493 2.03217e-16 8e-44 3.88251e-19 75.877205 -50.0568 66.6192 5.352769 79.944 -5.320238 -0.06924696 10.161299 18.221197
-9.11103 66.0748 -165.045 -21.718 -45.304497 15.691999 7.1745486 16.613897 14.907099 -1.4655501 -12.976 4.2540603 0.09547244 11.025801 7.4243608 4.94223 -21.720999 15.630201 0.0 0.0 0.0 0.0 0.0 0.0 -1.7962999e-13 -1.6936299e-13 3.0884e-13 51.787388 78.5158 14.914899 -27.109201 -43.716904 90.8836 -58.0194 -81.237 -65.7685 -1.17619e-09 6.10969e-09 6.85479e-10 -2.05731e-09 1.07918e-08 1.09098e-09 -1.1761799e-09 6.10969e-09 6.85474e-10 7.730911 5.47488 0.41731405 -1.17619e-09 6.10969e-09 6.85472e-10 2.90554 0.965183 0.102902 -1.1761799e-09 6.10969e-09 6.8547595e-10 10.2786 0.73180103 0.025912303 -1.17619e-09 6.10969e-09 6.85486e-10 2.2216702 -0.733487 -0.20892 -1.79632e-13 -1.69365e-13 3.08542e-13 -62.321598 12.287001 -40.906597 28.425999 -35.0105 -75.3608 0.42048103 18.1009 -2.6333501 -1.3444701e-10 7.00405e-10 -6.2304e-10 -2.38591e-10 1.22081e-09 -1.07467e-09 -1.34454e-10 7.00407e-10 -6.23023e-10 -7.730911 5.47488 -0.41731405 -1.3444701e-10 7.00374e-10 -6.2303496e-10 -2.90554 0.965183 -0.102902 -1.3446e-10 7.00375e-10 -6.23043e-10 -10.2786 0.73180103 -0.025912303 -1.3444901e-10 7.00411e-10 -6.2305e-10 -2.2216702 -0.733487 0.20892 -2.03217e-16 8e-44 -3.88251e-19 -14.8496 -19.597 -31.5485 -1.4985204 67.799995 2.8094099 -6.941231 -14.839902 -15.847603 2.03217e-16 8e-44 3.88251e-19 74.8964 -50.237804 65.1107 5.000849 79.350494 -4.96236 -0.07670843 10.1380005 18.1492
-9.319131 66.131805 -165.77501 -21.249 -45.487698 15.283999 6.92664 16.518602 15.0431 -1.50893 -12.8608 4.27935 0.0019386235 11.1474 7.47216 5.2355905 -22.264101 15.8302 0.0 0.0 0.0 0.0 0.0 0.0 -2.8306e-13 -3.08518e-13 1.1783e-13 52.439392 78.713196 14.040687 -27.146498 -43.610798 90.6761 -50.20941 -80.576096 -57.8597 1.30272e-10 -8.10577e-10 1.10839e-09 1.5075999e-10 -1.14056e-09 1.8839201e-09 1.3028299e-10 -8.10577e-10 1.10839e-09 7.730911 5.47488 0.41731405 1.30273e-10 -8.1058e-10 1.1084e-09 2.90554 0.965183 0.102902 1.3028201e-10 -8.10584e-10 1.1084e-09 10.2786 0.73180103 0.025912303 1.3026699e-10 -8.10583e-10 1.1084e-09 2.2216702 -0.733487 -0.20892 -2.83097e-13 -3.08509e-13 1.17482e-13 -63.4162 11.984798 -41.2146 28.425701 -35.0056 -75.354515 0.42262298 18.165798 -2.64311 -2.1779602e-10 -2.19438e-10 6.1198596e-10 -3.70201e-10 -3.9103298e-10 1.06498e-09 -2.17803e-10 -2.19438e-10 6.12002e-10 -7.730911 5.47488 -0.41731405 -2.1779399e-10 -2.19467e-10 6.1198596e-10 -2.90554 0.965183 -0.102902 -2.17803e-10 -2.19465e-10 6.11982e-10 -10.2786 0.73180103 -0.025912303 -2.1779399e-10 -2.1943099e-10 6.11974e-10 -2.2216702 -0.733487 0.20892 -2.03217e-16 8e-44 -3.88251e-19 -14.644199 -20.1414 -31.521702 -1.5705402 68.392 2.8638098 -7.1590986 -15.216499 -16.0633 2.03217e-16 8e-44 3.88251e-19 74.04759 -50.585598 63.777195 4.6629806 78.7052 -4.6142993 -0.14178118 10.2886 17.847
-9.49746 66.1071 -166.417 -20.631002 -45.436802 14.8880005 6.503131 16.254202 15.091301 -1.5311701 -12.713201 4.2725205 -0.13131882 11.2565 7.477541 5.601971 -22.6381 15.953999 0.0 0.0 0.0 0.0 0.0 0.0 -1.9392799e-13 -3.81817e-13 -4.3743497e-13 53.6561 79.0708 12.654098 -27.102404 -43.737103 90.9223 -51.380478 -80.6924 -59.04659 -3.89666e-10 1.27804e-09 2.67145e-09 -8.39948e-10 2.8717e-09 4.49326e-09 -3.89659e-10 1.27804e-09 2.67144e-09 7.730911 5.47488 0.41731405 -3.89666e-10 1.27804e-09 2.67145e-09 2.90554 0.965183 0.102902 -3.89658e-10 1.27804e-09 2.67145e-09 10.2786 0.73180103 0.025912303 -3.89671e-10 1.27804e-09 2.67146e-09 2.2216702 -0.733487 -0.20892 -1.93994e-13 -3.81814e-13 -4.3776102e-13 -64.0478 11.948001 -41.676598 28.424198 -34.95 -75.2633 0.43554804 18.4314 -2.68453 -9.49806e-10 -5.1528104e-10 2.1769901e-09 -1.61397e-09 -9.52867e-10 3.78181e-09 -9.49812e-10 -5.1528104e-10 2.17701e-09 -7.730911 5.47488 -0.41731405 -9.49804e-10 -5.15295e-10 2.1769901e-09 -2.90554 0.965183 -0.102902 -9.49805e-10 -5.15293e-10 2.1769901e-09 -10.2786 0.73180103 -0.025912303 -9.49799e-10 -5.15274e-10 2.17698e-09 -2.2216702 -0.733487 0.20892 -2.03217e-16 8e-44 -3.88251e-19 -14.7744 -20.7242 -31.663498 -1.6494504 69.0242 2.9320705 -7.377081 -15.333701 -16.423801 2.03217e-16 8e-44 3.88251e-19 73.4457 -51.089104 63.04001 4.4297595 78.201004 -4.3638906 -0.31402487 10.801701 17.375498
-9.638591 66.0288 -166.964 -19.682001 -45.363403 14.348001 5.96307 15.9324 15.034 -1.5082601 -12.607801 4.2351007 -0.26561698 11.380599 7.49703 5.91241 -22.9582 16.090199 0.0 0.0 0.0 0.0 0.0 0.0 -3.49602e-14 -3.15669e-13 -7.91908e-13 54.847088 79.4954 11.367996 -27.0369 -43.916 91.277596 -52.23172 -80.7739 -59.909184 -9.37336e-10 3.87266e-09 3.34474e-09 -1.8216401e-09 7.55098e-09 5.59651e-09 -9.37333e-10 3.87266e-09 3.34474e-09 7.730911 5.47488 0.41731405 -9.37338e-10 3.87267e-09 3.34474e-09 2.90554 0.965183 0.102902 -9.37329e-10 3.87267e-09 3.34474e-09 10.2786 0.73180103 0.025912303 -9.37339e-10 3.87266e-09 3.34474e-09 2.2216702 -0.733487 -0.20892 -3.5064e-14 -3.15672e-13 -7.92207e-13 -64.361694 11.9694 -42.0351 28.424301 -34.944603 -75.2535 0.447849 18.676601 -2.7229402 -1.38171e-09 -4.5657e-10 2.91244e-09 -2.3492601e-09 -8.79843e-10 5.05859e-09 -1.3817201e-09 -4.5656903e-10 2.91246e-09 -7.730911 5.47488 -0.41731405 -1.38171e-09 -4.5656903e-10 2.91245e-09 -2.90554 0.965183 -0.102902 -1.38171e-09 -4.5656903e-10 2.91244e-09 -10.2786 0.73180103 -0.025912303 -1.3817001e-09 -4.56565e-10 2.9124299e-09 -2.2216702 -0.733487 0.20892 -2.03217e-16 8e-44 -3.88251e-19 -15.076401 -21.388998 -31.802902 -1.7402694 69.7132 3.0148196 -7.566591 -15.2965 -16.807602 2.03217e-16 8e-44 3.88251e-19 73.092606 -51.558502 62.830894 4.2792687 77.8416 -4.19489 -0.49618 11.4135 16.7616
